<svg width="28" height="15" viewBox="0 0 28 15" fill="none" xmlns="http://www.w3.org/2000/svg">
<path d="M14.3373 0.0595522C13.6653 0.272624 13.119 0.808036 12.9387 1.4254C12.9114 1.51828 12.518 3.95495 12.0646 6.83962C11.4472 10.7733 11.2505 12.15 11.2778 12.3467C11.3653 13.0624 11.7969 13.6634 12.4415 13.9803L12.8076 14.1606L18.7026 14.1769C25.2587 14.1933 24.9254 14.2097 25.4936 13.8273C25.8214 13.6033 26.0126 13.3738 26.1984 12.9641C26.3896 12.5434 27.9904 2.37057 27.9466 1.84608C27.8865 1.13584 27.4331 0.496623 26.772 0.179747L26.4114 0.0103817L20.4837 -0.000545502C15.8015 -0.00600815 14.5122 0.0049181 14.3373 0.0595522ZM18.3803 2.2613C17.9159 4.7526 17.9432 4.55592 18.0415 4.75807C18.2163 5.12958 18.2764 5.14597 19.7188 5.14597C21.1557 5.14597 21.2758 5.11865 21.4179 4.77992C21.4561 4.68704 21.6037 3.99866 21.7402 3.2611L21.9861 1.92257L23.9748 1.90618C25.0729 1.90071 25.9853 1.91164 26.0126 1.93896C26.0508 1.9772 24.5211 12.0025 24.4446 12.2047C24.4118 12.3085 13.3102 12.3085 13.2337 12.2047C13.1955 12.161 13.4359 10.4892 13.9604 7.1401C14.392 4.39202 14.758 2.08647 14.7744 2.01544L14.8017 1.89525H16.6265H18.4513L18.3803 2.2613Z" fill="white"/>
<path d="M6.29043 2.39395C5.94624 2.56878 5.76595 2.89658 5.79873 3.3118C5.82604 3.68877 5.97356 3.92916 6.27951 4.08214C6.48165 4.18594 6.60731 4.19141 8.74896 4.19141C10.9889 4.19141 11.0053 4.19141 11.2239 4.06575C11.6227 3.84175 11.8139 3.22985 11.6118 2.83649C11.508 2.6398 11.2567 2.41034 11.0709 2.33932C10.9726 2.30107 10.1367 2.27922 8.72164 2.27922C6.59638 2.27922 6.51989 2.28468 6.29043 2.39395Z" fill="white"/>
<path d="M3.63016 6.15244C3.37338 6.218 3.2368 6.30541 3.0729 6.52395C2.94178 6.69331 2.91992 6.77526 2.91992 7.08668C2.91992 7.39809 2.94178 7.48004 3.0729 7.64941C3.38977 8.06462 3.19309 8.04277 6.79893 8.04277H10.0223L10.2409 7.91711C10.5741 7.72589 10.7326 7.46365 10.7326 7.08668C10.7326 6.7097 10.5741 6.44746 10.2409 6.25624L10.0223 6.13058L6.9082 6.11966C5.19269 6.11419 3.72304 6.13058 3.63016 6.15244Z" fill="white"/>
<path d="M0.569487 10.0588C0.340024 10.1572 0.0613916 10.4904 0.0176844 10.7199C-0.0642664 11.157 0.143342 11.5722 0.54217 11.7743L0.788022 11.8945L4.97844 11.8836L9.1634 11.8672L9.37647 11.6978C9.4912 11.605 9.62778 11.4465 9.67695 11.3427C9.89003 10.9275 9.72066 10.3593 9.31637 10.1189L9.08144 9.98235H4.90742C1.58021 9.98781 0.700608 9.99874 0.569487 10.0588Z" fill="white"/>
</svg>
