<svg width="20" height="20" viewBox="0 0 20 20" fill="none" xmlns="http://www.w3.org/2000/svg">
<path d="M0.375 9.3125H4.54812C4.70248 8.10284 5.25408 6.97866 6.11637 6.11637C6.97866 5.25408 8.10284 4.70248 9.3125 4.54812V0.375H10.6875V4.54812C11.8972 4.70248 13.0213 5.25408 13.8836 6.11637C14.7459 6.97866 15.2975 8.10284 15.4519 9.3125H19.625V10.6875H15.4519C15.2975 11.8972 14.7459 13.0213 13.8836 13.8836C13.0213 14.7459 11.8972 15.2975 10.6875 15.4519V19.625H9.3125V15.4519C8.10284 15.2975 6.97866 14.7459 6.11637 13.8836C5.25408 13.0213 4.70248 11.8972 4.54812 10.6875H0.375V9.3125ZM10 14.125C10.8158 14.125 11.6134 13.8831 12.2917 13.4298C12.9701 12.9766 13.4988 12.3323 13.811 11.5786C14.1232 10.8248 14.2049 9.99542 14.0457 9.19525C13.8866 8.39508 13.4937 7.66008 12.9168 7.08318C12.3399 6.50629 11.6049 6.11343 10.8047 5.95426C10.0046 5.7951 9.17518 5.87679 8.42143 6.189C7.66769 6.50121 7.02345 7.02992 6.57019 7.70827C6.11693 8.38663 5.875 9.18415 5.875 10C5.87627 11.0936 6.31128 12.1421 7.08459 12.9154C7.8579 13.6887 8.90637 14.1237 10 14.125Z" fill="#292A2C"/>
</svg>
